# xmcd
#
# Track frame offsets: 
#        150
#        13246
#        24248
#        37114
#        50194
#        63648
#        75765
#        87008
#        99809
#        109094
#        120671
#
# Disc length: 1763 seconds
#
# Revision: 1
# Processed by: cddbd v1.5.2PL0 Copyright (c) Steve Scherf et al.
# Submitted via: ExactAudioCopyFreeDBPlugin 1.0
#
DISCID=8006e10b
DTITLE=Tammy Wynette - 1970 - Superb country sounds [LP]
DYEAR=1970
DGENRE=Country
TTITLE0=I'll See Him Through
TTITLE1=Love Me, Love Me
TTITLE2=It's Just A Matter Of Time
TTITLE3=Cold Lonely Feeling
TTITLE4=The Divorce Sale
TTITLE5=He Loves Me All The Way
TTITLE6=He Thinks I Love Him
TTITLE7=Our Last Night Together
TTITLE8=A Lighter Shade Of Blue
TTITLE9=Lonely Days
TTITLE10=You Make My Skies Turn Blue
EXTD=
EXTT0=
EXTT1=
EXTT2=
EXTT3=
EXTT4=
EXTT5=
EXTT6=
EXTT7=
EXTT8=
EXTT9=
EXTT10=
PLAYORDER=
